<svg xmlns="http://www.w3.org/2000/svg" viewBox="0 0 512 512" role="img" aria-label="Financeiro+">
  <defs>
    <linearGradient id="bg" x1="64" y1="32" x2="448" y2="480" gradientUnits="userSpaceOnUse">
      <stop offset="0" stop-color="#151d26"/>
      <stop offset="0.55" stop-color="#070b10"/>
      <stop offset="1" stop-color="#0f1711"/>
    </linearGradient>
    <linearGradient id="stroke" x1="72" y1="34" x2="440" y2="478" gradientUnits="userSpaceOnUse">
      <stop offset="0" stop-color="#f3d28a"/>
      <stop offset="0.55" stop-color="#c9a35c"/>
      <stop offset="1" stop-color="#5fd47c"/>
    </linearGradient>
    <linearGradient id="white" x1="125" y1="114" x2="275" y2="372" gradientUnits="userSpaceOnUse">
      <stop offset="0" stop-color="#ffffff"/>
      <stop offset="1" stop-color="#d7dde4"/>
    </linearGradient>
    <linearGradient id="gold" x1="292" y1="233" x2="401" y2="365" gradientUnits="userSpaceOnUse">
      <stop offset="0" stop-color="#f8d986"/>
      <stop offset="0.48" stop-color="#d2a64e"/>
      <stop offset="1" stop-color="#8f6525"/>
    </linearGradient>
    <filter id="shadow" x="-30%" y="-30%" width="160%" height="160%">
      <feDropShadow dx="0" dy="18" stdDeviation="18" flood-color="#000000" flood-opacity="0.45"/>
      <feDropShadow dx="0" dy="0" stdDeviation="12" flood-color="#c9a35c" flood-opacity="0.18"/>
    </filter>
  </defs>

  <rect x="34" y="34" width="444" height="444" rx="112" fill="url(#bg)"/>
  <rect x="35" y="35" width="442" height="442" rx="111" fill="none" stroke="url(#stroke)" stroke-width="5" opacity="0.9"/>
  <path d="M95 430 C150 398 210 382 281 392 C349 401 400 371 438 315" fill="none" stroke="#5fd47c" stroke-width="3" opacity="0.12"/>

  <g filter="url(#shadow)">
    <path d="M148 371V173c0-40 29-69 72-69h136c9 0 13 11 7 17l-44 43c-7 7-16 11-26 11h-66c-18 0-30 12-30 30v38h94c8 0 12 10 7 16l-39 39c-6 6-14 10-23 10h-39v63c0 12-10 22-22 22h-44c-13 0-23-10-23-22z" fill="url(#white)"/>
    <path d="M341 235c13 0 23 10 23 23v34h34c13 0 23 10 23 23v21c0 13-10 23-23 23h-34v34c0 13-10 23-23 23h-21c-13 0-23-10-23-23v-34h-34c-13 0-23-10-23-23v-21c0-13 10-23 23-23h34v-34c0-13 10-23 23-23h21z" fill="url(#gold)"/>
  </g>
</svg>
